solid Concrete-Rectangular-Column 300 x 450mm [440200] Geometry
facet normal 0 0 0.21
outer loop
vertex 14.1991 0.596024 2.62
vertex 14.1991 -0.00397627 2.62
vertex 14.5491 -0.00397627 2.62
endloop
endfacet
facet normal 0 0 0.21
outer loop
vertex 14.5491 -0.00397627 2.62
vertex 14.5491 0.596024 2.62
vertex 14.1991 0.596024 2.62
endloop
endfacet
facet normal 0 0 -0.21
outer loop
vertex 14.5491 -0.00397627 0
vertex 14.1991 -0.00397627 0
vertex 14.1991 0.596024 0
endloop
endfacet
facet normal 0 0 -0.21
outer loop
vertex 14.1991 0.596024 0
vertex 14.5491 0.596024 0
vertex 14.5491 -0.00397627 0
endloop
endfacet
facet normal 0 0.916998 0
outer loop
vertex 14.5491 0.596024 2.62
vertex 14.5491 0.596024 0
vertex 14.1991 0.596024 0
endloop
endfacet
facet normal 0 0.916998 0
outer loop
vertex 14.1991 0.596024 0
vertex 14.1991 0.596024 2.62
vertex 14.5491 0.596024 2.62
endloop
endfacet
facet normal -1.572 0 0
outer loop
vertex 14.1991 0.596024 2.62
vertex 14.1991 0.596024 0
vertex 14.1991 -0.00397627 0
endloop
endfacet
facet normal -1.572 0 0
outer loop
vertex 14.1991 -0.00397627 0
vertex 14.1991 -0.00397627 2.62
vertex 14.1991 0.596024 2.62
endloop
endfacet
facet normal 0 -0.916998 0
outer loop
vertex 14.1991 -0.00397627 2.62
vertex 14.1991 -0.00397627 0
vertex 14.5491 -0.00397627 0
endloop
endfacet
facet normal 0 -0.916998 0
outer loop
vertex 14.5491 -0.00397627 0
vertex 14.5491 -0.00397627 2.62
vertex 14.1991 -0.00397627 2.62
endloop
endfacet
facet normal 1.572 0 0
outer loop
vertex 14.5491 -0.00397627 2.62
vertex 14.5491 -0.00397627 0
vertex 14.5491 0.596024 0
endloop
endfacet
facet normal 1.572 0 0
outer loop
vertex 14.5491 0.596024 0
vertex 14.5491 0.596024 2.62
vertex 14.5491 -0.00397627 2.62
endloop
endfacet
endsolid Concrete-Rectangular-Column 300 x 450mm [440200] Geometry
