solid Concrete-Rectangular-Column 300 x 450mm [433745] Geometry
facet normal 0 0 0.210002
outer loop
vertex 32.25 9.18 2.62
vertex 32.25 8.58 2.62
vertex 32.6 8.58 2.62
endloop
endfacet
facet normal 0 0 0.210002
outer loop
vertex 32.6 8.58 2.62
vertex 32.6 9.18 2.62
vertex 32.25 9.18 2.62
endloop
endfacet
facet normal 0 0 -0.210002
outer loop
vertex 32.6 8.58 0
vertex 32.25 8.58 0
vertex 32.25 9.18 0
endloop
endfacet
facet normal 0 0 -0.210002
outer loop
vertex 32.25 9.18 0
vertex 32.6 9.18 0
vertex 32.6 8.58 0
endloop
endfacet
facet normal 0 0.917006 0
outer loop
vertex 32.6 9.18 2.62
vertex 32.6 9.18 0
vertex 32.25 9.18 0
endloop
endfacet
facet normal 0 0.917006 0
outer loop
vertex 32.25 9.18 0
vertex 32.25 9.18 2.62
vertex 32.6 9.18 2.62
endloop
endfacet
facet normal -1.572 0 0
outer loop
vertex 32.25 9.18 2.62
vertex 32.25 9.18 0
vertex 32.25 8.58 0
endloop
endfacet
facet normal -1.572 0 0
outer loop
vertex 32.25 8.58 0
vertex 32.25 8.58 2.62
vertex 32.25 9.18 2.62
endloop
endfacet
facet normal 0 -0.917006 0
outer loop
vertex 32.25 8.58 2.62
vertex 32.25 8.58 0
vertex 32.6 8.58 0
endloop
endfacet
facet normal 0 -0.917006 0
outer loop
vertex 32.6 8.58 0
vertex 32.6 8.58 2.62
vertex 32.25 8.58 2.62
endloop
endfacet
facet normal 1.572 0 0
outer loop
vertex 32.6 8.58 2.62
vertex 32.6 8.58 0
vertex 32.6 9.18 0
endloop
endfacet
facet normal 1.572 0 0
outer loop
vertex 32.6 9.18 0
vertex 32.6 9.18 2.62
vertex 32.6 8.58 2.62
endloop
endfacet
endsolid Concrete-Rectangular-Column 300 x 450mm [433745] Geometry
