solid Concrete-Rectangular-Column 300 x 450mm [433662] Geometry
facet normal 0 0 0.21
outer loop
vertex 26.2022 9.18 2.62
vertex 26.2022 8.58 2.62
vertex 26.5522 8.58 2.62
endloop
endfacet
facet normal 0 0 0.21
outer loop
vertex 26.5522 8.58 2.62
vertex 26.5522 9.18 2.62
vertex 26.2022 9.18 2.62
endloop
endfacet
facet normal 0 0 -0.21
outer loop
vertex 26.5522 8.58 0
vertex 26.2022 8.58 0
vertex 26.2022 9.18 0
endloop
endfacet
facet normal 0 0 -0.21
outer loop
vertex 26.2022 9.18 0
vertex 26.5522 9.18 0
vertex 26.5522 8.58 0
endloop
endfacet
facet normal 0 0.917001 0
outer loop
vertex 26.5522 9.18 2.62
vertex 26.5522 9.18 0
vertex 26.2022 9.18 0
endloop
endfacet
facet normal 0 0.917001 0
outer loop
vertex 26.2022 9.18 0
vertex 26.2022 9.18 2.62
vertex 26.5522 9.18 2.62
endloop
endfacet
facet normal -1.572 0 0
outer loop
vertex 26.2022 9.18 2.62
vertex 26.2022 9.18 0
vertex 26.2022 8.58 0
endloop
endfacet
facet normal -1.572 0 0
outer loop
vertex 26.2022 8.58 0
vertex 26.2022 8.58 2.62
vertex 26.2022 9.18 2.62
endloop
endfacet
facet normal 0 -0.917001 0
outer loop
vertex 26.2022 8.58 2.62
vertex 26.2022 8.58 0
vertex 26.5522 8.58 0
endloop
endfacet
facet normal 0 -0.917001 0
outer loop
vertex 26.5522 8.58 0
vertex 26.5522 8.58 2.62
vertex 26.2022 8.58 2.62
endloop
endfacet
facet normal 1.572 0 0
outer loop
vertex 26.5522 8.58 2.62
vertex 26.5522 8.58 0
vertex 26.5522 9.18 0
endloop
endfacet
facet normal 1.572 0 0
outer loop
vertex 26.5522 9.18 0
vertex 26.5522 9.18 2.62
vertex 26.5522 8.58 2.62
endloop
endfacet
endsolid Concrete-Rectangular-Column 300 x 450mm [433662] Geometry
