solid Concrete-Rectangular-Column 300 x 450mm [440201] Geometry
facet normal 0 0 0.209999
outer loop
vertex 20.1991 0.596024 2.62
vertex 20.1991 -0.00397627 2.62
vertex 20.5491 -0.00397627 2.62
endloop
endfacet
facet normal 0 0 0.209999
outer loop
vertex 20.5491 -0.00397627 2.62
vertex 20.5491 0.596024 2.62
vertex 20.1991 0.596024 2.62
endloop
endfacet
facet normal 0 0 -0.209999
outer loop
vertex 20.5491 -0.00397627 0
vertex 20.1991 -0.00397627 0
vertex 20.1991 0.596024 0
endloop
endfacet
facet normal 0 0 -0.209999
outer loop
vertex 20.1991 0.596024 0
vertex 20.5491 0.596024 0
vertex 20.5491 -0.00397627 0
endloop
endfacet
facet normal 0 0.916996 0
outer loop
vertex 20.5491 0.596024 2.62
vertex 20.5491 0.596024 0
vertex 20.1991 0.596024 0
endloop
endfacet
facet normal 0 0.916996 0
outer loop
vertex 20.1991 0.596024 0
vertex 20.1991 0.596024 2.62
vertex 20.5491 0.596024 2.62
endloop
endfacet
facet normal -1.572 0 0
outer loop
vertex 20.1991 0.596024 2.62
vertex 20.1991 0.596024 0
vertex 20.1991 -0.00397627 0
endloop
endfacet
facet normal -1.572 0 0
outer loop
vertex 20.1991 -0.00397627 0
vertex 20.1991 -0.00397627 2.62
vertex 20.1991 0.596024 2.62
endloop
endfacet
facet normal 0 -0.916996 0
outer loop
vertex 20.1991 -0.00397627 2.62
vertex 20.1991 -0.00397627 0
vertex 20.5491 -0.00397627 0
endloop
endfacet
facet normal 0 -0.916996 0
outer loop
vertex 20.5491 -0.00397627 0
vertex 20.5491 -0.00397627 2.62
vertex 20.1991 -0.00397627 2.62
endloop
endfacet
facet normal 1.572 0 0
outer loop
vertex 20.5491 -0.00397627 2.62
vertex 20.5491 -0.00397627 0
vertex 20.5491 0.596024 0
endloop
endfacet
facet normal 1.572 0 0
outer loop
vertex 20.5491 0.596024 0
vertex 20.5491 0.596024 2.62
vertex 20.5491 -0.00397627 2.62
endloop
endfacet
endsolid Concrete-Rectangular-Column 300 x 450mm [440201] Geometry
