solid Concrete-Rectangular-Column 300 x 450mm [440202] Geometry
facet normal 0 0 0.21
outer loop
vertex 26.2022 0.596024 2.62
vertex 26.2022 -0.00397627 2.62
vertex 26.5522 -0.00397627 2.62
endloop
endfacet
facet normal 0 0 0.21
outer loop
vertex 26.5522 -0.00397627 2.62
vertex 26.5522 0.596024 2.62
vertex 26.2022 0.596024 2.62
endloop
endfacet
facet normal 0 0 -0.21
outer loop
vertex 26.5522 -0.00397627 0
vertex 26.2022 -0.00397627 0
vertex 26.2022 0.596024 0
endloop
endfacet
facet normal 0 0 -0.21
outer loop
vertex 26.2022 0.596024 0
vertex 26.5522 0.596024 0
vertex 26.5522 -0.00397627 0
endloop
endfacet
facet normal 0 0.917001 0
outer loop
vertex 26.5522 0.596024 2.62
vertex 26.5522 0.596024 0
vertex 26.2022 0.596024 0
endloop
endfacet
facet normal 0 0.917001 0
outer loop
vertex 26.2022 0.596024 0
vertex 26.2022 0.596024 2.62
vertex 26.5522 0.596024 2.62
endloop
endfacet
facet normal -1.572 0 0
outer loop
vertex 26.2022 0.596024 2.62
vertex 26.2022 0.596024 0
vertex 26.2022 -0.00397627 0
endloop
endfacet
facet normal -1.572 0 0
outer loop
vertex 26.2022 -0.00397627 0
vertex 26.2022 -0.00397627 2.62
vertex 26.2022 0.596024 2.62
endloop
endfacet
facet normal 0 -0.917001 0
outer loop
vertex 26.2022 -0.00397627 2.62
vertex 26.2022 -0.00397627 0
vertex 26.5522 -0.00397627 0
endloop
endfacet
facet normal 0 -0.917001 0
outer loop
vertex 26.5522 -0.00397627 0
vertex 26.5522 -0.00397627 2.62
vertex 26.2022 -0.00397627 2.62
endloop
endfacet
facet normal 1.572 0 0
outer loop
vertex 26.5522 -0.00397627 2.62
vertex 26.5522 -0.00397627 0
vertex 26.5522 0.596024 0
endloop
endfacet
facet normal 1.572 0 0
outer loop
vertex 26.5522 0.596024 0
vertex 26.5522 0.596024 2.62
vertex 26.5522 -0.00397627 2.62
endloop
endfacet
endsolid Concrete-Rectangular-Column 300 x 450mm [440202] Geometry
