solid Concrete-Rectangular-Column 300 x 450mm [433554] Geometry
facet normal 0 0 0.21
outer loop
vertex 14.1991 9.18 2.62
vertex 14.1991 8.58 2.62
vertex 14.5491 8.58 2.62
endloop
endfacet
facet normal 0 0 0.21
outer loop
vertex 14.5491 8.58 2.62
vertex 14.5491 9.18 2.62
vertex 14.1991 9.18 2.62
endloop
endfacet
facet normal 0 0 -0.21
outer loop
vertex 14.5491 8.58 0
vertex 14.1991 8.58 0
vertex 14.1991 9.18 0
endloop
endfacet
facet normal 0 0 -0.21
outer loop
vertex 14.1991 9.18 0
vertex 14.5491 9.18 0
vertex 14.5491 8.58 0
endloop
endfacet
facet normal 0 0.916998 0
outer loop
vertex 14.5491 9.18 2.62
vertex 14.5491 9.18 0
vertex 14.1991 9.18 0
endloop
endfacet
facet normal 0 0.916998 0
outer loop
vertex 14.1991 9.18 0
vertex 14.1991 9.18 2.62
vertex 14.5491 9.18 2.62
endloop
endfacet
facet normal -1.572 0 0
outer loop
vertex 14.1991 9.18 2.62
vertex 14.1991 9.18 0
vertex 14.1991 8.58 0
endloop
endfacet
facet normal -1.572 0 0
outer loop
vertex 14.1991 8.58 0
vertex 14.1991 8.58 2.62
vertex 14.1991 9.18 2.62
endloop
endfacet
facet normal 0 -0.916998 0
outer loop
vertex 14.1991 8.58 2.62
vertex 14.1991 8.58 0
vertex 14.5491 8.58 0
endloop
endfacet
facet normal 0 -0.916998 0
outer loop
vertex 14.5491 8.58 0
vertex 14.5491 8.58 2.62
vertex 14.1991 8.58 2.62
endloop
endfacet
facet normal 1.572 0 0
outer loop
vertex 14.5491 8.58 2.62
vertex 14.5491 8.58 0
vertex 14.5491 9.18 0
endloop
endfacet
facet normal 1.572 0 0
outer loop
vertex 14.5491 9.18 0
vertex 14.5491 9.18 2.62
vertex 14.5491 8.58 2.62
endloop
endfacet
endsolid Concrete-Rectangular-Column 300 x 450mm [433554] Geometry
